/vscmnt/brussel_pixiu_data/_data_brussel/112/vsc11236/PredSimResults/SUBJ07mtu3D/worker4.mot
version=1
nRows=11
nColumns=50
inDegrees=yes
endheader
                time	         pelvis_tilt	         pelvis_list	     pelvis_rotation	           pelvis_tx	           pelvis_ty	           pelvis_tz	       hip_flexion_r	     hip_adduction_r	      hip_rotation_r	        knee_angle_r	       ankle_angle_r	         mtp_angle_r	       hip_flexion_l	     hip_adduction_l	      hip_rotation_l	        knee_angle_l	       ankle_angle_l	         mtp_angle_l	    lumbar_extension	      lumbar_bending	     lumbar_rotation	 ercspn_r/activation	 intobl_r/activation	 extobl_r/activation	    abd_r/activation	    add_r/activation	hamstrings_r/activation	bifemsh_r/activation	glut_max_r/activation	iliopsoas_r/activation	rect_fem_r/activation	  vasti_r/activation	gastroc_r/activation	 soleus_r/activation	tib_ant_r/activation	 ercspn_l/activation	 intobl_l/activation	 extobl_l/activation	    abd_l/activation	    add_l/activation	hamstrings_l/activation	bifemsh_l/activation	glut_max_l/activation	iliopsoas_l/activation	rect_fem_l/activation	  vasti_l/activation	gastroc_l/activation	 soleus_l/activation	tib_ant_l/activation	
          1.64894020	         -3.74107497	         -0.33768784	         -8.34329465	          2.01170704	          0.84897109	          0.01382843	        -15.19438492	          0.69874028	          4.11246380	         -7.44631702	          9.01963569	         26.18981504	         30.08976360	         -2.80730391	         -5.05338325	         -7.04470018	          3.06328598	          0.26894940	        -10.65962542	          2.19889437	          1.06323762	          0.12176897	          0.00999999	          0.00999999	          0.03841596	          0.01012916	          0.01610535	          0.15747361	          0.02054389	          0.29969152	          0.01183211	          0.01000000	          0.14061032	          0.29161268	          0.02272599	          0.12568756	          0.15158202	          0.01000000	          0.02030668	          0.12489887	          0.07357515	          0.12719005	          0.07396195	          0.03492474	          0.01000008	          0.00999999	          0.00999999	          0.00999999	          0.40005227	
          1.65993313	         -3.74563302	         -0.35673333	         -8.38490270	          2.02720825	          0.84747235	          0.01368698	        -15.69463208	          0.60619800	          3.79816578	         -8.39921831	          8.14183098	         27.79582680	         29.86609044	         -2.59032675	         -4.60043049	         -8.46979706	          2.72061668	          0.25241128	        -10.56447143	          1.77799372	          1.25104217	          0.13603212	          0.00999999	          0.01000000	          0.03246743	          0.02036283	          0.01361546	          0.13308953	          0.01736276	          0.25328566	          0.01000000	          0.01000000	          0.11883745	          0.27510168	          0.01920697	          0.10622541	          0.14614617	          0.00999999	          0.01716228	          0.10592152	          0.06383458	          0.12717751	          0.11788630	          0.02951680	          0.01000000	          0.00999999	          0.01656498	          0.01183215	          0.42712371	
          1.67092607	         -3.74343336	         -0.37431726	         -8.37487457	          2.04288275	          0.84621800	          0.01346555	        -16.08673489	          0.52529353	          3.43774374	         -9.56099586	          7.12888177	         29.36913286	         29.56887720	         -2.41693649	         -4.13558408	         -9.82417935	          2.29766243	          0.24784453	        -10.46300252	          1.35026681	          1.43516093	          0.15354652	          0.00999999	          0.00999999	          0.02743999	          0.01720974	          0.01150730	          0.11248123	          0.01467422	          0.21406558	          0.01000008	          0.01000000	          0.10043601	          0.25361410	          0.01623286	          0.13280450	          0.12351610	          0.00999999	          0.08572441	          0.11709050	          0.05858074	          0.10748473	          0.12648020	          0.02494626	          0.00999999	          0.00999999	          0.01399997	          0.00999999	          0.49277833	
          1.68191900	         -3.73612577	         -0.41064034	         -8.31346108	          2.05855642	          0.84535756	          0.01313921	        -16.30157273	          0.47861196	          3.04033025	        -11.02653596	          5.95669691	         30.87153346	         29.27939240	         -2.25739149	         -3.74436115	        -11.17456447	          1.82634669	          0.22849730	        -10.37515947	          0.94162076	          1.61361236	          0.19001371	          0.00999999	          0.00999999	          0.02319103	          0.02000559	          0.01000040	          0.09506402	          0.01240198	          0.18319605	          0.01000090	          0.01000014	          0.08488395	          0.22686110	          0.01371927	          0.14458384	          0.10439019	          0.00999999	          0.13113152	          0.14297299	          0.04950981	          0.09084121	          0.15020669	          0.02108344	          0.00999999	          0.00999999	          0.01183214	          0.00999999	          0.51865109	
          1.69291194	         -3.72330831	         -0.46170161	         -8.20634247	          2.07411587	          0.84500273	          0.01271440	        -16.27619249	          0.46218093	          2.60994594	        -12.88835378	          4.63892960	         32.20306130	         29.05075011	         -2.10540233	         -3.41297923	        -12.66783066	          1.58542916	          0.20931535	        -10.30648536	          0.55021753	          1.78536792	          0.22520205	          0.00999999	          0.00999999	          0.01960001	          0.03631187	          0.01001083	          0.08034379	          0.01048159	          0.15482900	          0.01000002	          0.01000000	          0.07174005	          0.19173268	          0.01159491	          0.15467217	          0.08822584	          0.00999999	          0.17095645	          0.16842115	          0.04294964	          0.07677486	          0.17312689	          0.01781877	          0.01000000	          0.01712721	          0.01000000	          0.00999999	          0.51606942	
          1.70390487	         -3.70561663	         -0.52693352	         -8.05543499	          2.08947097	          0.84525005	          0.01220428	        -15.94549719	          0.47615624	          2.13836616	        -15.24540049	          3.21338683	         33.18031952	         28.87852675	         -1.96429970	         -3.14294732	        -14.28533242	          1.60546926	          0.19110157	        -10.25879480	          0.17805233	          1.94783598	          0.25211171	          0.00999999	          0.00999999	          0.01656503	          0.06293892	          0.01116135	          0.06790292	          0.00999999	          0.13085444	          0.01000000	          0.00999999	          0.06063143	          0.16204375	          0.00999999	          0.16319879	          0.07456447	          0.00999999	          0.19434511	          0.19296934	          0.04122970	          0.06488662	          0.18441224	          0.01505961	          0.01000000	          0.03686034	          0.01000000	          0.00999999	          0.49406820	
          1.71489781	         -3.68405516	         -0.60726695	         -7.86240139	          2.10460175	          0.84612843	          0.01162636	        -15.26280817	          0.51749860	          1.61510016	        -18.16810218	          1.71049125	         33.59459766	         28.69280812	         -1.83211673	         -2.92346251	        -15.88840198	          1.85552198	          0.17714372	        -10.22530788	         -0.17181125	          2.09828034	          0.26191245	          0.00999999	          0.00999999	          0.01400001	          0.08547954	          0.01230290	          0.05738848	          0.00999999	          0.11059222	          0.01000000	          0.00999999	          0.05124293	          0.13695200	          0.00999999	          0.16558757	          0.06301850	          0.00999999	          0.20235601	          0.20727982	          0.04023339	          0.05483923	          0.18854383	          0.01272770	          0.01000000	          0.05051535	          0.01000000	          0.00999999	          0.45584003	
          1.72589074	         -3.65971782	         -0.70009946	         -7.62935169	          2.11952350	          0.84758024	          0.01099474	        -14.20637614	          0.57366418	          1.05001415	        -21.66847573	          0.06959751	         33.37253870	         28.42473670	         -1.70240138	         -2.73132013	        -17.34462015	          2.29238574	          0.17677837	        -10.19702823	         -0.50075495	          2.23361376	          0.26452966	          0.00999999	          0.00999999	          0.01183217	          0.10356886	          0.01254823	          0.04850219	          0.00999999	          0.09346752	          0.01000000	          0.00999999	          0.04330819	          0.11574561	          0.00999999	          0.15250413	          0.05326037	          0.00999999	          0.19825975	          0.20974059	          0.04224761	          0.04634762	          0.18428147	          0.01075687	          0.01000000	          0.06846866	          0.01000000	          0.00999999	          0.40552797	
          1.73688367	         -3.63471528	         -0.80081126	         -7.35826606	          2.13423416	          0.84951513	          0.01031287	        -12.77790733	          0.62974205	          0.47213651	        -25.67898510	         -1.86076772	         32.55074733	         28.01996679	         -1.56679344	         -2.54039868	        -18.53745300	          2.84953292	          0.21355327	        -10.17040246	         -0.81083031	          2.35235491	          0.26125846	          0.00999999	          0.00999999	          0.01000002	          0.11784403	          0.01064168	          0.05462224	          0.00999999	          0.07899450	          0.00999999	          0.00999999	          0.03660211	          0.09782292	          0.00999999	          0.12888956	          0.04501324	          0.00999999	          0.19110010	          0.20145763	          0.05054576	          0.03917091	          0.16567455	          0.00999999	          0.01000000	          0.09731246	          0.01000000	          0.00999999	          0.35833090	
          1.74787661	         -3.61182933	         -0.90570458	         -7.04955656	          2.14870218	          0.85184133	          0.00958123	        -11.00103923	          0.67871864	         -0.07680209	        -30.08670369	         -4.13295930	         31.01713614	         27.43802578	         -1.41769893	         -2.31901361	        -19.36899783	          3.43710155	          0.30472047	        -10.14887056	         -1.10283461	          2.45315969	          0.25015945	          0.00999999	          0.00999999	          0.00999999	          0.12426667	          0.01656506	          0.04616425	          0.00999999	          0.06676256	          0.00999999	          0.00999999	          0.03093444	          0.08267549	          0.03934268	          0.10893159	          0.03804315	          0.00999999	          0.19070844	          0.18289371	          0.06126150	          0.03310548	          0.14002060	          0.00999999	          0.00999999	          0.12180003	          0.01000000	          0.00999999	          0.31986862	
          1.75886954	         -3.59321544	         -1.00852740	         -6.70637216	          2.16287582	          0.85443035	          0.00882065	         -8.93946686	          0.72625501	         -0.54919863	        -34.75561074	         -6.43066381	         28.35764992	         26.68191308	         -1.25278504	         -2.05088873	        -19.82903758	          4.00901485	          0.44619719	        -10.13907443	         -1.38301801	          2.53461581	          0.25986664	          0.03259193	          0.01000000	          0.01179933	          0.10502454	          0.01400028	          0.03901593	          0.01399998	          0.05642468	          0.01000000	          0.00999999	          0.02614438	          0.06987356	          0.17755631	          0.09206403	          0.03215234	          0.00999999	          0.19926348	          0.15457347	          0.07045946	          0.02797925	          0.11833904	          0.00999999	          0.00999999	          0.13822767	          0.01000000	          0.00999999	          0.28794436	
